<?xml version="1.0" standalone="no"?>
<!DOCTYPE svg PUBLIC "-//W3C//DTD SVG 1.1//EN" "http://www.w3.org/Graphics/SVG/1.1/DTD/svg11.dtd">
<svg
  t="1776133750520"
  class="icon"
  viewBox="0 0 1024 1024"
  version="1.1"
  xmlns="http://www.w3.org/2000/svg"
  p-id="15498"
  xmlns:xlink="http://www.w3.org/1999/xlink"
  width="48"
  height="48"
>
  <path
    d="M800 64A96 96 0 0 1 896 160V448h-64V160a32 32 0 0 0-32-32h-576a32 32 0 0 0-32 32v704a32 32 0 0 0 32 32H768v64H224A96 96 0 0 1 128 864v-704A96 96 0 0 1 224 64h576z m-89.728 451.136a165.504 165.504 0 0 1 149.12 45.44 165.44 165.44 0 0 1 44.16 155.136c-3.584 15.232-0.384 31.744 10.944 42.56l88.256 83.84c11.776 11.2 18.56 25.536 20.608 40.448a68.48 68.48 0 0 1-117.248 56.256l-84.224-88.256c-10.816-11.328-27.328-14.592-42.56-11.008a167.296 167.296 0 0 1-35.456 4.48 166.4 166.4 0 0 1-159.04-219.776c2.816-8.384 13.44-10.304 19.648-4.096l71.232 71.296c12.416 12.416 32.64 12.416 45.12 0l34.752-34.688a32 32 0 0 0 0-45.184l-71.04-70.976c-6.272-6.272-4.352-16.896 4.032-19.712 7.104-2.432 14.336-4.288 21.696-5.76zM480 640a32 32 0 0 1 0 64H320a32 32 0 0 1 0-64h160zM576 480a32 32 0 0 1 0 64H320a32 32 0 0 1 0-64h256zM704 320a32 32 0 0 1 0 64H320a32 32 0 0 1 0-64h384z"
    p-id="15499"
    fill="#1296db"
  />
</svg>
